<svg width="64" height="66" viewBox="0 0 64 66" fill="none" xmlns="http://www.w3.org/2000/svg">
<path d="M63.6402 58.7031L59.3433 45.8906C58.4058 43.1563 55.7495 41.2812 52.8589 41.2812C52.4683 41.2812 52.0777 41.2812 51.7652 41.3594C51.687 41.4375 37.5464 43.9375 31.9995 43.9375C26.4527 43.9375 12.312 41.4375 12.1558 41.4375C11.7652 41.3594 11.3745 41.3594 11.062 41.3594C8.17141 41.3594 5.51516 43.2344 4.57766 45.9688L0.280784 58.7813C-0.266091 60.5 -0.0317149 62.2969 0.905785 63.7031C1.84329 65.1094 3.48391 65.8906 5.35891 65.8906H58.4839C60.3589 65.8906 61.9214 65.1094 62.937 63.7031C63.9527 62.2969 64.2652 60.5 63.6402 58.7031ZM58.562 62.6875H5.43703C3.71828 62.6875 2.78078 61.3594 3.32766 59.7187L7.62453 46.9063C8.09328 45.4219 9.57766 44.4062 11.1402 44.4062C11.2964 44.4062 11.5308 44.4062 11.687 44.4844C11.687 44.4844 26.1402 47.0625 32.0777 47.0625C38.0152 47.0625 52.4683 44.4844 52.4683 44.4844C52.6245 44.4844 52.8589 44.4062 53.0152 44.4062C54.4995 44.4062 56.062 45.4219 56.5308 46.9063L60.8277 59.7187C61.2183 61.3594 60.2808 62.6875 58.562 62.6875Z" fill="#0D47A1"/>
<path d="M31.9999 40.8125C41.3749 40.7344 48.1718 30.4219 49.1874 20.8125C49.8906 14.0156 48.5624 8.78125 45.3593 5.1875C42.3906 1.90625 37.8593 0.1875 32.0781 0.1875C26.2968 0.1875 21.7656 1.90625 18.7968 5.1875C15.5156 8.78125 14.2656 14.0156 14.9687 20.8125C15.9062 30.4219 22.7031 40.7344 31.9999 40.8125ZM46.0624 20.5C45.1249 29.3281 39.1093 37.6875 31.9999 37.6875C24.9687 37.6875 18.8749 29.3281 17.9374 20.5C17.6249 17.1406 17.7812 14.0156 18.6406 11.3594C20.8281 12.6094 25.3593 14.7969 30.3593 14.7969C32.6249 14.7969 34.9687 14.3281 37.2343 13.1562L38.7968 12.375L36.6874 9.09375C39.4218 8.3125 43.0156 9.40625 44.8906 10.1875C46.1406 13.0781 46.4531 16.6719 46.0624 20.5ZM31.9999 3.3125C36.2187 3.3125 39.2656 4.32812 41.5312 5.96875C38.9531 5.5 35.9062 5.5 33.4843 7.21875L32.2343 8.07812L34.2656 11.0469C28.5624 12.9219 22.3124 9.79687 20.0468 8.46875C22.2343 5.34375 25.9843 3.3125 31.9999 3.3125Z" fill="#0D47A1"/>
</svg>
