<svg width="64" height="64" viewBox="0 0 64 64" fill="none" xmlns="http://www.w3.org/2000/svg">
<path d="M17.2055 12.6461C24.0639 12.6461 28.204 19.5166 28.204 25.7891C28.204 28.7924 27.3536 31.81 25.6112 34.272L32.7228 37.2147C33.3246 37.4619 33.6889 38.0432 33.6889 38.6555L33.6942 53.7525C33.6942 54.6158 32.9935 55.3158 32.1302 55.3158H2.28002C1.41677 55.3158 0.716797 54.6158 0.716797 53.7525V38.6555C0.716797 37.9578 1.17412 37.3667 1.80531 37.1656L8.799 34.272C7.05663 31.8107 6.20623 28.7916 6.20623 25.7891C6.20623 19.5166 10.3464 12.6461 17.2055 12.6461ZM48.9001 14.9085L50.0907 18.5951L53.9647 18.5875L50.8262 20.8591L52.0303 24.5411L48.9001 22.2583L45.7706 24.5411L46.9748 20.8591L43.8355 18.5875L47.7103 18.5951L48.9001 14.9085ZM37.798 26.7597L37.2311 29.5634L39.7914 28.2798C39.0816 27.8354 38.4118 27.3289 37.798 26.7597ZM43.4258 29.9406L35.7888 33.77C34.6482 34.3627 33.2852 33.3762 33.5445 32.0828L35.3081 23.3611C34.7963 22.225 34.5181 21.0019 34.5181 19.7244C34.5181 12.4775 42.5436 8.68359 48.9001 8.68359C55.2566 8.68359 63.2821 12.4775 63.2821 19.7244C63.2821 26.9714 55.2566 30.766 48.9001 30.766C46.965 30.766 45.1145 30.472 43.4258 29.9406ZM48.9001 11.81C44.3646 11.81 37.6453 14.3484 37.6453 19.7244C37.6453 25.1005 44.3646 27.6388 48.9001 27.6388C53.4356 27.6388 60.1556 25.1005 60.1556 19.7244C60.1556 14.3484 53.4356 11.81 48.9001 11.81ZM17.2055 15.7725C12.1311 15.7725 9.33343 21.2824 9.33343 25.7891C9.33343 28.6835 10.3418 31.7283 12.4546 33.7693C13.2536 34.5418 13.0177 35.9017 11.9655 36.3341L3.84325 39.6949V52.1893H30.567V39.6949L22.4999 36.3568C21.4318 35.966 21.1188 34.5751 21.9564 33.7693C24.0692 31.7283 25.0776 28.6835 25.0776 25.7891C25.0776 21.2816 22.2799 15.7725 17.2055 15.7725Z" fill="#0D47A1"/>
</svg>
