<svg width="100" height="100" viewBox="0 0 100 100" fill="none" xmlns="http://www.w3.org/2000/svg">
<path d="M49.9992 24.2783C35.8152 24.2783 24.2773 35.8177 24.2773 50.001C24.2773 64.1843 35.8152 75.722 49.9992 75.722C64.1825 75.722 75.7211 64.1843 75.7211 50.001C75.7211 35.8177 64.1826 24.2783 49.9992 24.2783ZM49.9992 71.6647C38.053 71.6647 28.3345 61.9464 28.3345 50.0009C28.3345 38.0539 38.053 28.3355 49.9992 28.3355C61.9454 28.3355 71.6639 38.0539 71.6639 50.0009C71.6639 61.9464 61.9454 71.6647 49.9992 71.6647Z" fill="#0D47A1"/>
<path d="M45.9324 44.9598C45.9324 43.3325 48.3125 43.0546 50.377 43.0546C52.3228 43.0546 54.9816 43.9666 57.2048 45.1191L57.6404 40.6339C56.5286 39.9983 53.9494 39.244 51.3296 39.0863L51.9645 34.5215H47.7175L48.3533 39.0863C42.8763 39.6016 41.0898 42.7766 41.0898 45.4361C41.0898 52.1435 53.5911 50.7161 53.5911 54.8422C53.5911 56.3915 52.1238 56.9458 49.5432 56.9458C46.0512 56.9458 43.4307 55.7168 42.0822 54.4457L41.4068 59.4868C42.6781 60.2411 45.2564 60.9157 48.3533 61.075L47.7175 65.4806H51.9645L51.3296 61.0345C57.7592 60.4785 58.9101 57.0647 58.9101 54.8033C58.9103 46.826 45.9324 48.8094 45.9324 44.9598Z" fill="#0D47A1"/>
</svg>
