<svg width="100" height="100" viewBox="0 0 100 100" fill="none" xmlns="http://www.w3.org/2000/svg">
<g clip-path="url(#clip0_2490_1985)">
<path d="M71.0721 28.929C74.3327 32.1897 74.3327 37.4764 71.0721 40.7372L64.091 47.7182C63.6769 47.6841 63.258 47.6668 62.835 47.6668C61.3613 47.6668 59.9365 47.8771 58.5893 48.2691L63.8593 42.9987L57.0017 36.1411L33.8126 59.33C33.5973 59.5454 33.4418 59.813 33.3617 60.107L30.9121 69.0889L39.8941 66.6394C40.1879 66.5591 40.4557 66.4037 40.6711 66.1884L48.2703 58.5887C47.8783 59.9357 47.6683 61.36 47.6683 62.8335C47.6683 63.2565 47.6856 63.6754 47.7197 64.0898L43.1459 68.6633C42.4999 69.3092 41.6965 69.7756 40.815 70.016L28.8784 73.2714C27.572 73.6277 26.3733 72.4289 26.7296 71.1227L29.985 59.186C30.2254 58.3045 30.6917 57.5011 31.3377 56.855L59.2638 28.929C62.5247 25.6682 67.8113 25.6682 71.0721 28.929ZM61.7388 31.4038L59.475 33.6654L66.3327 40.5254L68.5972 38.2623C70.4911 36.3684 70.4911 33.2977 68.5972 31.4038C66.7032 29.5099 63.6325 29.5099 61.7388 31.4038ZM55.3175 54.6094C56.0518 57.1532 54.5251 59.7981 51.9547 60.4339L50.5915 60.7711C50.4868 61.4424 50.4322 62.1312 50.4322 62.833C50.4322 63.5673 50.4919 64.2872 50.6062 64.9876L51.8651 65.291C54.4609 65.9161 56.0039 68.5877 55.2484 71.1486L54.8137 72.6216C55.8383 73.5213 57.0061 74.2521 58.2766 74.772L59.4276 73.5615C61.2677 71.6267 64.3528 71.6271 66.1922 73.5626L67.3558 74.7872C68.6242 74.2731 69.7909 73.5493 70.8157 72.6571L70.3537 71.0566C69.6192 68.5126 71.1461 65.868 73.7165 65.2322L75.0785 64.895C75.1832 64.2237 75.2378 63.5349 75.2378 62.833C75.2378 62.0987 75.1781 61.3787 75.0635 60.678L73.8061 60.3751C71.2103 59.75 69.6672 57.0783 70.4228 54.5173L70.8572 53.0454C69.8324 52.1452 68.6648 51.4144 67.3941 50.8945L66.2435 52.1044C64.4035 54.0394 61.3181 54.0389 59.479 52.1032L58.3151 50.8787C57.0467 51.3925 55.8803 52.116 54.8552 53.0083L55.3175 54.6094ZM62.835 66.333C60.9669 66.333 59.4524 64.766 59.4524 62.833C59.4524 60.9001 60.9669 59.333 62.835 59.333C64.7031 59.333 66.2176 60.9001 66.2176 62.833C66.2176 64.766 64.7031 66.333 62.835 66.333Z" fill="#0D47A1"/>
</g>
<defs>
<clipPath id="clip0_2490_1985">
<rect width="56" height="56" fill="white" transform="translate(22 22)"/>
</clipPath>
</defs>
</svg>
