<svg width="100" height="100" viewBox="0 0 100 100" fill="none" xmlns="http://www.w3.org/2000/svg">
<path d="M47.7364 46.7307L47.8764 47H48.18H55.67C56.4656 47 57.2287 47.3161 57.7913 47.8787C58.3539 48.4413 58.67 49.2044 58.67 50C58.67 50.7956 58.3539 51.5587 57.7913 52.1213C57.2287 52.6839 56.4656 53 55.67 53H48.18H47.8764L47.7364 53.2693L42.4164 63.5H38.4279L40.3756 53.5965L40.4929 53H39.885H34.845H34.5781L34.4296 53.2217L32.2331 56.5H29.5V43.5H32.2331L34.4296 46.7783L34.5781 47H34.845H39.885H40.4929L40.3756 46.4035L38.4279 36.5H42.4164L47.7364 46.7307ZM18.2341 25.2341C19.9764 23.4918 22.3369 22.509 24.8009 22.5H75.1991C77.6631 22.509 80.0236 23.4918 81.7659 25.2341C83.5084 26.9766 84.4912 29.3375 84.5 31.8018V68.1982C84.4912 70.6625 83.5084 73.0234 81.7659 74.7659C80.0236 76.5082 77.6632 77.491 75.1993 77.5C75.1989 77.5 75.1986 77.5 75.1982 77.5H24.8018C24.8014 77.5 24.8011 77.5 24.8007 77.5C22.3368 77.491 19.9764 76.5082 18.2341 74.7659C16.4918 73.0236 15.509 70.6631 15.5 68.1991V31.8009C15.509 29.3369 16.4918 26.9764 18.2341 25.2341ZM77.5335 70.5335C78.1523 69.9146 78.5 69.0752 78.5 68.2V31.8C78.5 30.9248 78.1523 30.0854 77.5335 29.4665C76.9146 28.8477 76.0752 28.5 75.2 28.5H24.8C23.9248 28.5 23.0854 28.8477 22.4665 29.4665C21.8477 30.0854 21.5 30.9248 21.5 31.8V68.2C21.5 69.0752 21.8477 69.9146 22.4665 70.5335C23.0854 71.1523 23.9248 71.5 24.8 71.5H75.2C76.0752 71.5 76.9146 71.1523 77.5335 70.5335Z" fill="#0D47A1" stroke="white"/>
</svg>
