<svg width="98" height="84" viewBox="0 0 98 84" fill="none" xmlns="http://www.w3.org/2000/svg">
<path d="M60.2822 56.1122C70.575 48.6234 78.6284 40.23 83.3359 32.7303C85.6905 28.9791 87.1938 25.4739 87.7358 22.4335C88.2775 19.3943 87.8524 16.8681 86.4213 14.9999C84.9903 13.1316 82.626 12.0163 79.4822 11.6586C76.3371 11.3008 72.4616 11.7092 68.1021 12.843C59.3861 15.1098 48.8399 20.249 38.5471 27.7377C28.2543 35.2265 20.2008 43.6199 15.4933 51.1197C13.1388 54.8708 11.6354 58.376 11.0935 61.4164C10.5517 64.4556 10.9768 66.9818 12.4079 68.8501C13.839 70.7183 16.2033 71.8336 19.3471 72.1913C22.4921 72.5491 26.3677 72.1408 30.7272 71.007C39.4431 68.7402 49.9893 63.601 60.2822 56.1122Z" stroke="white"/>
</svg>
