<svg width="24" height="24" viewBox="0 0 24 24" fill="none" xmlns="http://www.w3.org/2000/svg">
<path d="M16.7671 22.562C18.4563 22.562 19.8257 21.1929 19.8257 19.5037C19.8257 17.8148 18.456 16.4451 16.7671 16.4451C15.0779 16.4451 13.7085 17.8145 13.7085 19.5037C13.7085 21.1835 15.0683 22.562 16.7671 22.562ZM14.6533 19.3104C14.2766 18.6386 15.2982 18.066 15.6746 18.7378L16.2537 19.7673L17.9282 17.8446C18.4336 17.2638 19.3177 18.0334 18.8123 18.6142L16.5925 21.1628C16.3274 21.4633 15.8399 21.4216 15.6398 21.0642L14.6533 19.3104ZM13.5509 22.2528H3.58816C3.26444 22.2528 3.00195 21.9903 3.00195 21.6666V0.85159C3.00195 0.527871 3.26444 0.265381 3.58816 0.265381H13.3221C13.4792 0.267365 13.6118 0.320657 13.7264 0.426957L18.8585 4.59307C19.0119 4.6988 19.1122 4.87568 19.1122 5.07581V15.9816C20.2895 16.7668 20.9981 18.0821 20.9981 19.5037C20.9981 21.8403 19.1037 23.7347 16.7671 23.7347C15.5249 23.7347 14.3571 23.195 13.5509 22.2528ZM17.9395 15.4371V5.66231H13.3221C12.9984 5.66231 12.7359 5.39953 12.7359 5.07581V1.43808H4.17437V21.0803H12.8394C12.6438 20.5931 12.5358 20.061 12.5358 19.5037C12.5358 17.1668 14.4305 15.2724 16.7671 15.2724C17.1739 15.2724 17.5673 15.3299 17.9395 15.4371ZM8.22058 8.29515L8.70757 9.80319L10.2922 9.80007L9.00833 10.729L9.501 12.2353L8.22058 11.3013L6.94044 12.2353L7.43311 10.729L6.14928 9.80007L7.73386 9.80319L8.22058 8.29515ZM13.8936 8.29515L14.3803 9.80319L15.9649 9.80007L14.6811 10.729L15.1737 12.2353L13.8936 11.3013L12.6132 12.2353L13.1058 10.729L11.822 9.80007L13.4066 9.80319L13.8936 8.29515ZM16.8762 4.4896L13.9086 2.08042V4.4896H16.8762Z" fill="#0D47A1"/>
</svg>
