<svg width="24" height="24" viewBox="0 0 24 24" fill="none" xmlns="http://www.w3.org/2000/svg">
<path d="M16.4794 10.08V5.73258C16.4794 5.57234 16.4642 5.52002 16.3039 5.52002H7.75609C7.59585 5.52002 7.35938 5.57234 7.35938 5.73258V10.08" stroke="#0D47A1" stroke-miterlimit="10" stroke-linecap="round" stroke-linejoin="round"/>
<path d="M15.6674 10.96H8.47376C7.13824 10.96 5.91992 11.9415 5.91992 13.2769V16.7589C5.91992 16.9192 6.18552 17.12 6.34576 17.12H17.7952C17.9555 17.12 17.9999 16.9192 17.9999 16.7589V13.2769C17.9999 11.9415 17.0027 10.96 15.6674 10.96Z" stroke="#0D47A1" stroke-miterlimit="10" stroke-linecap="round" stroke-linejoin="round"/>
<path d="M17.9999 14.13C17.9999 13.9698 17.87 13.8398 17.7098 13.8398H6.21008C6.04984 13.8398 5.91992 13.9698 5.91992 14.13V16.8297C5.91992 16.9899 6.04984 17.1198 6.21008 17.1198H17.7098C17.87 17.1198 17.9999 16.9899 17.9999 16.8297V14.13Z" stroke="#0D47A1" stroke-miterlimit="10" stroke-linecap="round" stroke-linejoin="round"/>
<path d="M5.91992 15.5999V18.4799" stroke="#0D47A1" stroke-miterlimit="10" stroke-linecap="round" stroke-linejoin="round"/>
<path d="M18 15.5999V18.4799" stroke="#0D47A1" stroke-miterlimit="10" stroke-linecap="round" stroke-linejoin="round"/>
<path d="M13.5165 10.0725C13.5165 9.35358 13.6705 8.59646 13.6705 8.59646C13.6705 8.46886 13.567 8.35278 13.4394 8.35278C13.4394 8.35278 12.7205 8.50046 12.0144 8.50046C11.3083 8.50046 10.5124 8.34326 10.5124 8.34326C10.3847 8.34326 10.2812 8.4451 10.2812 8.57278C10.2812 8.57278 10.4353 9.30302 10.4353 10.0733" stroke="#0D47A1" stroke-miterlimit="10" stroke-linecap="round" stroke-linejoin="round"/>
</svg>
