<svg width="32" height="32" viewBox="0 0 32 32" fill="none" xmlns="http://www.w3.org/2000/svg">
<path d="M15.999 8.49805C12.9674 8.49805 10.5 10.9664 10.5 13.998C10.5 19.3324 15.6895 23.3877 15.6895 23.3877C15.8718 23.5329 16.1302 23.5329 16.3125 23.3877C16.3125 23.3877 21.5029 19.3324 21.5029 13.998C21.5029 10.9664 19.0307 8.49805 15.999 8.49805ZM15.999 11.499C17.3738 11.499 18.5019 12.6233 18.502 13.998C18.502 15.3728 17.3738 16.5 15.999 16.5C14.6242 16.5 13.5 15.3728 13.5 13.998C13.5 12.6233 14.6242 11.499 15.999 11.499Z" fill="#0D47A1"/>
<path d="M8 24.5H24" stroke="#0D47A1" stroke-linecap="round"/>
</svg>
