<svg width="100" height="100" viewBox="0 0 100 100" fill="none" xmlns="http://www.w3.org/2000/svg">
<path d="M30.2477 55.7332C30.0116 55.4656 29.6625 55.3219 29.307 55.3554C28.9512 55.3853 28.6308 55.5819 28.443 55.8856L19.7737 69.8918C19.5161 70.3078 19.5563 70.8423 19.8731 71.2152L25.4853 77.8219L22.413 80.4014C21.9151 80.8189 21.1688 80.7551 20.7492 80.2592L17.5395 76.4633C17.1269 75.9753 17.1735 75.256 17.6459 74.8253L18.2111 74.3098C18.6712 73.8901 18.7041 73.1768 18.2843 72.7169C17.8645 72.2569 17.151 72.2235 16.6912 72.6436L16.1264 73.1588C14.7536 74.4098 14.6177 76.5011 15.8173 77.9196L19.0271 81.7155C19.7054 82.5177 20.6776 82.9314 21.6557 82.9314C22.2683 82.9314 22.8824 82.7665 23.4291 82.4361L27.4669 84.5482C28.0279 84.8502 28.6411 84.9998 29.2524 84.9998C29.99 84.9998 30.7249 84.7816 31.3615 84.3513L33.2159 83.0973C33.5199 82.8916 33.705 82.5508 33.7116 82.1839C33.7183 81.817 33.5462 81.4696 33.2497 81.2529L31.1737 79.7347C30.671 79.3665 29.9655 79.477 29.5978 79.9793C29.2302 80.4821 29.3396 81.1878 29.8425 81.5553L30.6244 82.127L30.0978 82.4834C29.6307 82.799 29.032 82.8303 28.5239 82.5563L25.3391 80.8903L27.672 78.9317L43.055 72.5121C43.3904 72.372 43.6378 72.0788 43.7195 71.7247C43.8011 71.37 43.7069 70.9981 43.4663 70.7256L30.2477 55.7332ZM27.4051 76.5983L22.1233 70.3807L29.561 58.3646L40.734 71.0359L27.4051 76.5983Z" fill="#0D47A1" stroke="#0D47A1" stroke-width="0.5"/>
<path d="M39.6065 62.0289C39.8738 62.0289 40.1423 61.9342 40.3574 61.7421L41.9678 60.3035C42.4324 59.8885 42.4725 59.1756 42.0577 58.7113C41.6425 58.2468 40.9295 58.2069 40.4654 58.6216L38.8551 60.0601C38.3904 60.4751 38.3503 61.1881 38.7652 61.6524C38.9879 61.9018 39.2965 62.0289 39.6065 62.0289Z" fill="#0D47A1" stroke="#0D47A1" stroke-width="0.5"/>
<path d="M46.259 65.4898L44.1465 65.937C43.5373 66.066 43.1477 66.6644 43.2766 67.2735C43.3889 67.8042 43.8572 68.1681 44.3787 68.1681C44.456 68.1681 44.5347 68.1598 44.6133 68.1433L46.7257 67.6962C47.335 67.5672 47.7244 66.9686 47.5955 66.3596C47.4668 65.7499 46.8684 65.3598 46.259 65.4898Z" fill="#0D47A1" stroke="#0D47A1" stroke-width="0.5"/>
<path d="M34.0521 56.5777C34.2006 56.6436 34.3557 56.6747 34.5082 56.6747C34.9407 56.6747 35.3533 56.4244 35.5398 56.0036L36.4145 54.0293C36.6669 53.4596 36.4099 52.7936 35.8404 52.5414C35.2708 52.2889 34.6049 52.5461 34.3525 53.1155L33.4778 55.0898C33.2256 55.6593 33.4826 56.3253 34.0521 56.5777Z" fill="#0D47A1" stroke="#0D47A1" stroke-width="0.5"/>
<path d="M82.3124 46.428C81.3283 44.814 80.0917 43.3824 78.6377 42.1732C78.1579 41.7743 77.4476 41.8402 77.0496 42.3195C76.6512 42.7983 76.7168 43.5091 77.1956 43.9074C78.3414 44.8599 79.3293 45.9728 80.1412 47.2174C77.259 50.445 73.9157 52.9079 69.9687 54.7047V54.1655C69.9687 48.6359 67.5303 43.4372 63.2786 39.9014C62.7993 39.5027 62.0884 39.5687 61.6905 40.0478C61.292 40.5263 61.3576 41.2373 61.8365 41.6358C65.5713 44.7412 67.7134 49.3084 67.7134 54.1655V56.1521C67.7134 56.1961 67.7214 56.2373 67.7262 56.28C67.7046 56.4602 67.7212 56.6473 67.7926 56.8281C67.9682 57.2704 68.3926 57.5401 68.8412 57.5401C68.9797 57.5401 69.1205 57.5145 69.2567 57.4602C74.3782 55.4286 78.5976 52.4474 82.1568 48.3464C82.3935 48.0737 82.4712 47.7208 82.4073 47.3922C82.517 47.0826 82.4965 46.7298 82.3124 46.428Z" fill="#0D47A1" stroke="#0D47A1" stroke-width="0.5"/>
<path d="M73.1871 21.6907C73.7369 21.5782 74.3025 21.5211 74.8687 21.5211C79.467 21.5211 83.2076 25.2619 83.2076 29.86C83.2076 34.4582 79.467 38.1991 74.8687 38.1991C73.129 38.1991 71.4626 37.669 70.0497 36.6667C69.542 36.3062 68.838 36.426 68.4776 36.9338C68.1172 37.4415 68.2369 38.1456 68.7446 38.506C70.5411 39.7805 72.6589 40.4542 74.8687 40.4542C80.7106 40.4542 85.463 35.7016 85.463 29.8598C85.463 24.0182 80.7106 19.2656 74.8687 19.2656C74.1511 19.2656 73.4331 19.338 72.7348 19.4812C72.1247 19.606 71.7315 20.202 71.8565 20.8121C71.9812 21.4223 72.576 21.8165 73.1871 21.6907Z" fill="#0D47A1" stroke="#0D47A1" stroke-width="0.5"/>
<path d="M59.2402 37.8554C65.5416 37.8554 70.6679 32.7289 70.6679 26.4277C70.6679 20.1265 65.5414 15 59.2402 15C52.939 15 47.8125 20.1265 47.8125 26.4277C47.8125 32.7289 52.939 37.8554 59.2402 37.8554ZM59.2402 17.2553C64.2979 17.2553 68.4126 21.3701 68.4126 26.4277C68.4126 31.4852 64.2979 35.6001 59.2402 35.6001C54.1825 35.6001 50.0678 31.4852 50.0678 26.4277C50.0678 21.3701 54.1825 17.2553 59.2402 17.2553Z" fill="#0D47A1" stroke="#0D47A1" stroke-width="0.5"/>
<path d="M61.8051 57.2071C58.06 57.61 54.2696 57.1122 50.768 55.7707V54.1651C50.768 49.308 52.9099 44.741 56.6447 41.6355C57.1236 41.2369 57.1891 40.526 56.7907 40.0472C56.393 39.5686 55.6817 39.503 55.2028 39.9011C50.9511 43.4366 48.5127 48.6355 48.5127 54.1651V54.7764C44.6734 52.919 41.35 50.4858 38.6219 47.5232C39.4675 46.1552 40.5204 44.9391 41.7611 43.9072C42.24 43.5089 42.3052 42.7977 41.907 42.319C41.5087 41.8404 40.7979 41.7751 40.319 42.173C38.7522 43.4761 37.4424 45.0314 36.426 46.7959C36.192 47.2019 36.2396 47.6926 36.5072 48.0434C36.4878 48.338 36.5815 48.6397 36.7956 48.8755C40.0388 52.4504 44.0696 55.3154 48.7754 57.3916C52.0811 58.85 55.6601 59.5986 59.2637 59.5986C60.1909 59.5986 61.1201 59.5491 62.0465 59.4491C62.6659 59.3825 63.1136 58.8265 63.047 58.2072C62.9804 57.588 62.4234 57.1417 61.8051 57.2071Z" fill="#0D47A1" stroke="#0D47A1" stroke-width="0.5"/>
<path d="M44.0887 40.4538C46.2987 40.4538 48.4164 39.7801 50.2128 38.5057C50.7206 38.1453 50.8403 37.4411 50.4799 36.9334C50.1194 36.4255 49.4157 36.306 48.9075 36.6664C47.4947 37.6687 45.8282 38.1987 44.0885 38.1987C39.4902 38.1987 35.7496 34.4579 35.7496 29.8596C35.7496 25.2615 39.4902 21.5207 44.0885 21.5207C44.6545 21.5207 45.2203 21.5778 45.7701 21.6904C46.3814 21.8167 46.9763 21.4219 47.101 20.8121C47.2259 20.202 46.8327 19.606 46.2226 19.4812C45.5243 19.338 44.8061 19.2656 44.0885 19.2656C38.2467 19.2656 33.4941 24.0182 33.4941 29.8598C33.4943 35.7012 38.2467 40.4538 44.0887 40.4538Z" fill="#0D47A1" stroke="#0D47A1" stroke-width="0.5"/>
</svg>
