<svg width="100" height="100" viewBox="0 0 100 100" fill="none" xmlns="http://www.w3.org/2000/svg">
<path d="M81.6402 75.7031L77.3433 62.8906C76.4058 60.1563 73.7495 58.2812 70.8589 58.2812C70.4683 58.2812 70.0777 58.2812 69.7652 58.3594C69.687 58.4375 55.5464 60.9375 49.9995 60.9375C44.4527 60.9375 30.312 58.4375 30.1558 58.4375C29.7652 58.3594 29.3745 58.3594 29.062 58.3594C26.1714 58.3594 23.5152 60.2344 22.5777 62.9688L18.2808 75.7813C17.7339 77.5 17.9683 79.2969 18.9058 80.7031C19.8433 82.1094 21.4839 82.8906 23.3589 82.8906H76.4839C78.3589 82.8906 79.9214 82.1094 80.937 80.7031C81.9527 79.2969 82.2652 77.5 81.6402 75.7031ZM76.562 79.6875H23.437C21.7183 79.6875 20.7808 78.3594 21.3277 76.7187L25.6245 63.9063C26.0933 62.4219 27.5777 61.4062 29.1402 61.4062C29.2964 61.4062 29.5308 61.4062 29.687 61.4844C29.687 61.4844 44.1402 64.0625 50.0777 64.0625C56.0152 64.0625 70.4683 61.4844 70.4683 61.4844C70.6245 61.4844 70.8589 61.4062 71.0152 61.4062C72.4995 61.4062 74.062 62.4219 74.5308 63.9063L78.8277 76.7187C79.2183 78.3594 78.2808 79.6875 76.562 79.6875Z" fill="#0D47A1"/>
<path d="M49.9999 57.8125C59.3749 57.7344 66.1718 47.4219 67.1874 37.8125C67.8906 31.0156 66.5624 25.7812 63.3593 22.1875C60.3906 18.9062 55.8593 17.1875 50.0781 17.1875C44.2968 17.1875 39.7656 18.9062 36.7968 22.1875C33.5156 25.7812 32.2656 31.0156 32.9687 37.8125C33.9062 47.4219 40.7031 57.7344 49.9999 57.8125ZM64.0624 37.5C63.1249 46.3281 57.1093 54.6875 49.9999 54.6875C42.9687 54.6875 36.8749 46.3281 35.9374 37.5C35.6249 34.1406 35.7812 31.0156 36.6406 28.3594C38.8281 29.6094 43.3593 31.7969 48.3593 31.7969C50.6249 31.7969 52.9687 31.3281 55.2343 30.1562L56.7968 29.375L54.6874 26.0938C57.4218 25.3125 61.0156 26.4062 62.8906 27.1875C64.1406 30.0781 64.4531 33.6719 64.0624 37.5ZM49.9999 20.3125C54.2187 20.3125 57.2656 21.3281 59.5312 22.9687C56.9531 22.5 53.9062 22.5 51.4843 24.2188L50.2343 25.0781L52.2656 28.0469C46.5624 29.9219 40.3124 26.7969 38.0468 25.4687C40.2343 22.3437 43.9843 20.3125 49.9999 20.3125Z" fill="#0D47A1"/>
</svg>
